<?xml version="1.0" encoding="iso-8859-1"?>
<!-- Generator: Adobe Illustrator 19.0.0, SVG Export Plug-In . SVG Version: 6.00 Build 0)  -->
<svg version="1.1" id="Capa_1" xmlns="http://www.w3.org/2000/svg" xmlns:xlink="http://www.w3.org/1999/xlink" x="0px" y="0px"
	 viewBox="0 0 384 384" style="enable-background:new 0 0 384 384;" xml:space="preserve">
<g>
	<g>
		<path d="M64,0v80H0v144h64v160h224l96-96V0H64z M16,208V96h240v112H16z M288,361.376V288h73.376L288,361.376z M368,272h-96v96H80
			V224h192V80H80V16h288V272z"/>
	</g>
</g>
<g>
	<g>
		<polygon points="89.52,117.856 79.632,166.24 79.424,166.24 69.648,117.856 49.088,117.856 49.088,186.4 61.76,186.4 
			61.76,131.68 61.952,131.68 74.144,186.4 84.896,186.4 97.088,131.68 97.28,131.68 97.28,186.4 109.952,186.4 109.952,117.856 		
			"/>
	</g>
</g>
<g>
	<g>
		<path d="M174.576,137.44c-0.576-4.112-1.664-7.6-3.312-10.512c-1.632-2.928-3.92-5.152-6.864-6.72
			c-2.96-1.568-6.816-2.368-11.632-2.368h-22.624v68.544h21.792c4.608,0,8.416-0.704,11.424-2.112
			c3.008-1.408,5.408-3.536,7.2-6.432c1.792-2.88,3.056-6.56,3.792-10.992c0.736-4.448,1.088-9.68,1.088-15.696
			C175.44,146.112,175.152,141.536,174.576,137.44z M161.168,163.264c-0.272,3.152-0.848,5.68-1.728,7.6
			c-0.864,1.92-2.032,3.296-3.504,4.128c-1.472,0.832-3.424,1.248-5.856,1.248h-6.16v-48.208h5.856c2.624,0,4.72,0.512,6.288,1.504
			c1.584,0.976,2.752,2.448,3.568,4.4c0.8,1.952,1.328,4.4,1.584,7.344c0.24,2.96,0.384,6.384,0.384,10.288
			C161.6,156.24,161.456,160.144,161.168,163.264z"/>
	</g>
</g>
<g>
</g>
<g>
</g>
<g>
</g>
<g>
</g>
<g>
</g>
<g>
</g>
<g>
</g>
<g>
</g>
<g>
</g>
<g>
</g>
<g>
</g>
<g>
</g>
<g>
</g>
<g>
</g>
<g>
</g>
</svg>
